<svg xmlns="http://www.w3.org/2000/svg" width="1024" height="1024" viewBox="0 0 43 43" shape-rendering="crispEdges"><path fill="#ffffff" d="M0 0h43v43H0z"/><path stroke="#000000" stroke-width="1.12" stroke-linecap="square" d="M5 5.5h7m4 0h2m2 0h1m1 0h6m1 0h1m1 0h7M5 6.5h1m5 0h1m2 0h1m9 0h2m1 0h1m1 0h1m1 0h1m5 0h1M5 7.5h1m1 0h3m1 0h1m1 0h1m5 0h3m2 0h3m1 0h2m1 0h1m1 0h3m1 0h1M5 8.5h1m1 0h3m1 0h1m1 0h1m1 0h1m3 0h1m1 0h1m3 0h2m1 0h1m2 0h1m1 0h3m1 0h1M5 9.5h1m1 0h3m1 0h1m3 0h1m1 0h1m1 0h1m2 0h3m1 0h4m1 0h1m1 0h3m1 0h1M5 10.5h1m5 0h1m3 0h1m1 0h1m1 0h1m2 0h2m4 0h1m2 0h1m5 0h1M5 11.5h7m1 0h1m1 0h1m1 0h1m1 0h1m1 0h1m1 0h1m1 0h1m1 0h1m1 0h1m1 0h7M17 12.5h1m7 0h1m3 0h1M8 13.5h2m1 0h2m2 0h2m2 0h3m1 0h1m1 0h1m8 0h2M5 14.5h3m1 0h2m2 0h3m2 0h1m1 0h2m1 0h6m1 0h1m1 0h2m2 0h1M7 15.5h1m1 0h1m1 0h2m2 0h1m3 0h7m1 0h2m2 0h2m2 0h3M9 16.5h2m2 0h2m1 0h1m2 0h2m1 0h2m2 0h8m1 0h3M5 17.5h2m1 0h1m2 0h3m2 0h1m1 0h1m3 0h1m3 0h1m4 0h2m4 0h1M7 18.5h1m1 0h1m4 0h1m1 0h1m2 0h1m2 0h1m2 0h2m1 0h1m1 0h1m1 0h1m2 0h2M6 19.5h1m1 0h1m2 0h2m1 0h3m1 0h2m1 0h1m7 0h1m1 0h1m1 0h1M5 20.5h1m6 0h1m1 0h1m5 0h2m2 0h1m10 0h1M5 21.5h1m1 0h2m1 0h2m1 0h1m1 0h10m3 0h1m1 0h5m1 0h1M5 22.5h1m1 0h1m2 0h1m2 0h1m3 0h1m3 0h1m1 0h1m1 0h1m1 0h1m1 0h1m1 0h1m1 0h2m2 0h1M8 23.5h1m2 0h4m2 0h1m1 0h1m1 0h1m2 0h5m4 0h3m1 0h1M9 24.5h2m1 0h1m1 0h4m4 0h2m1 0h1m1 0h3m4 0h2m1 0h1M6 25.5h3m1 0h3m1 0h5m2 0h5m3 0h2m1 0h1m1 0h1M5 26.5h1m2 0h1m3 0h1m1 0h2m3 0h1m1 0h1m2 0h1m1 0h1m4 0h3m1 0h1M5 27.5h1m3 0h1m1 0h1m1 0h5m2 0h3m2 0h2m2 0h1m1 0h1m2 0h1m1 0h2M5 28.5h1m1 0h1m1 0h2m4 0h1m1 0h5m5 0h1m5 0h1m1 0h2M5 29.5h3m1 0h1m1 0h1m2 0h1m2 0h1m3 0h1m3 0h1m3 0h6m2 0h1M13 30.5h1m2 0h1m3 0h1m3 0h1m2 0h1m1 0h1m3 0h1m2 0h1M5 31.5h7m1 0h2m2 0h3m1 0h2m1 0h6m1 0h1m1 0h1M5 32.5h1m5 0h1m4 0h2m1 0h2m2 0h3m2 0h2m3 0h4M5 33.5h1m1 0h3m1 0h1m1 0h2m2 0h2m1 0h2m1 0h2m1 0h1m1 0h7m1 0h1M5 34.5h1m1 0h3m1 0h1m1 0h1m4 0h4m2 0h3m3 0h1m1 0h1m3 0h1M5 35.5h1m1 0h3m1 0h1m4 0h2m2 0h2m2 0h4m1 0h1m3 0h2m1 0h2M5 36.5h1m5 0h1m2 0h2m1 0h3m2 0h1m2 0h1m5 0h1m2 0h4M5 37.5h7m3 0h1m1 0h1m2 0h1m1 0h1m1 0h1m1 0h4m3 0h1"/><polygon points="21.5,15.9 27.1,21.5 21.5,27.1 15.9,21.5" fill="#000000"/><text x="21.5" y="21.5" fill="#ffffff" font-family="Arial, Helvetica, sans-serif" font-size="2.4" font-weight="700" text-anchor="middle" dominant-baseline="middle">GDO</text></svg>



