<?xml version="1.0" standalone="yes"?>
<svg xmlns="http://www.w3.org/2000/svg" version="1.1" width="1024" height="1024">
  <rect x="0" y="0" width="1024" height="1024" style="fill:#ffffff;shape-rendering:crispEdges;"/>
  <path x="0" y="0" style="fill:#000000;shape-rendering:crispEdges;" d="M99.90,99.90 V124.88 H124.88 V99.90 H99.90 Z M124.88,99.90 V124.88 H149.85 V99.90 H124.88 Z M149.85,99.90 V124.88 H174.83 V99.90 H149.85 Z M174.83,99.90 V124.88 H199.80 V99.90 H174.83 Z M199.80,99.90 V124.88 H224.78 V99.90 H199.80 Z M224.78,99.90 V124.88 H249.76 V99.90 H224.78 Z M249.76,99.90 V124.88 H274.73 V99.90 H249.76 Z M324.68,99.90 V124.88 H349.66 V99.90 H324.68 Z M399.61,99.90 V124.88 H424.59 V99.90 H399.61 Z M474.54,99.90 V124.88 H499.51 V99.90 H474.54 Z M499.51,99.90 V124.88 H524.49 V99.90 H499.51 Z M524.49,99.90 V124.88 H549.46 V99.90 H524.49 Z M624.39,99.90 V124.88 H649.37 V99.90 H624.39 Z M649.37,99.90 V124.88 H674.34 V99.90 H649.37 Z M674.34,99.90 V124.88 H699.32 V99.90 H674.34 Z M699.32,99.90 V124.88 H724.29 V99.90 H699.32 Z M749.27,99.90 V124.88 H774.24 V99.90 H749.27 Z M774.24,99.90 V124.88 H799.22 V99.90 H774.24 Z M799.22,99.90 V124.88 H824.20 V99.90 H799.22 Z M824.20,99.90 V124.88 H849.17 V99.90 H824.20 Z M849.17,99.90 V124.88 H874.15 V99.90 H849.17 Z M874.15,99.90 V124.88 H899.12 V99.90 H874.15 Z M899.12,99.90 V124.88 H924.10 V99.90 H899.12 Z M99.90,124.88 V149.85 H124.88 V124.88 H99.90 Z M249.76,124.88 V149.85 H274.73 V124.88 H249.76 Z M324.68,124.88 V149.85 H349.66 V124.88 H324.68 Z M399.61,124.88 V149.85 H424.59 V124.88 H399.61 Z M449.56,124.88 V149.85 H474.54 V124.88 H449.56 Z M599.41,124.88 V149.85 H624.39 V124.88 H599.41 Z M699.32,124.88 V149.85 H724.29 V124.88 H699.32 Z M749.27,124.88 V149.85 H774.24 V124.88 H749.27 Z M899.12,124.88 V149.85 H924.10 V124.88 H899.12 Z M99.90,149.85 V174.83 H124.88 V149.85 H99.90 Z M149.85,149.85 V174.83 H174.83 V149.85 H149.85 Z M174.83,149.85 V174.83 H199.80 V149.85 H174.83 Z M199.80,149.85 V174.83 H224.78 V149.85 H199.80 Z M249.76,149.85 V174.83 H274.73 V149.85 H249.76 Z M324.68,149.85 V174.83 H349.66 V149.85 H324.68 Z M349.66,149.85 V174.83 H374.63 V149.85 H349.66 Z M424.59,149.85 V174.83 H449.56 V149.85 H424.59 Z M499.51,149.85 V174.83 H524.49 V149.85 H499.51 Z M524.49,149.85 V174.83 H549.46 V149.85 H524.49 Z M599.41,149.85 V174.83 H624.39 V149.85 H599.41 Z M674.34,149.85 V174.83 H699.32 V149.85 H674.34 Z M699.32,149.85 V174.83 H724.29 V149.85 H699.32 Z M749.27,149.85 V174.83 H774.24 V149.85 H749.27 Z M799.22,149.85 V174.83 H824.20 V149.85 H799.22 Z M824.20,149.85 V174.83 H849.17 V149.85 H824.20 Z M849.17,149.85 V174.83 H874.15 V149.85 H849.17 Z M899.12,149.85 V174.83 H924.10 V149.85 H899.12 Z M99.90,174.83 V199.80 H124.88 V174.83 H99.90 Z M149.85,174.83 V199.80 H174.83 V174.83 H149.85 Z M174.83,174.83 V199.80 H199.80 V174.83 H174.83 Z M199.80,174.83 V199.80 H224.78 V174.83 H199.80 Z M249.76,174.83 V199.80 H274.73 V174.83 H249.76 Z M299.71,174.83 V199.80 H324.68 V174.83 H299.71 Z M399.61,174.83 V199.80 H424.59 V174.83 H399.61 Z M449.56,174.83 V199.80 H474.54 V174.83 H449.56 Z M499.51,174.83 V199.80 H524.49 V174.83 H499.51 Z M549.46,174.83 V199.80 H574.44 V174.83 H549.46 Z M599.41,174.83 V199.80 H624.39 V174.83 H599.41 Z M624.39,174.83 V199.80 H649.37 V174.83 H624.39 Z M749.27,174.83 V199.80 H774.24 V174.83 H749.27 Z M799.22,174.83 V199.80 H824.20 V174.83 H799.22 Z M824.20,174.83 V199.80 H849.17 V174.83 H824.20 Z M849.17,174.83 V199.80 H874.15 V174.83 H849.17 Z M899.12,174.83 V199.80 H924.10 V174.83 H899.12 Z M99.90,199.80 V224.78 H124.88 V199.80 H99.90 Z M149.85,199.80 V224.78 H174.83 V199.80 H149.85 Z M174.83,199.80 V224.78 H199.80 V199.80 H174.83 Z M199.80,199.80 V224.78 H224.78 V199.80 H199.80 Z M249.76,199.80 V224.78 H274.73 V199.80 H249.76 Z M299.71,199.80 V224.78 H324.68 V199.80 H299.71 Z M324.68,199.80 V224.78 H349.66 V199.80 H324.68 Z M349.66,199.80 V224.78 H374.63 V199.80 H349.66 Z M374.63,199.80 V224.78 H399.61 V199.80 H374.63 Z M424.59,199.80 V224.78 H449.56 V199.80 H424.59 Z M574.44,199.80 V224.78 H599.41 V199.80 H574.44 Z M649.37,199.80 V224.78 H674.34 V199.80 H649.37 Z M674.34,199.80 V224.78 H699.32 V199.80 H674.34 Z M699.32,199.80 V224.78 H724.29 V199.80 H699.32 Z M749.27,199.80 V224.78 H774.24 V199.80 H749.27 Z M799.22,199.80 V224.78 H824.20 V199.80 H799.22 Z M824.20,199.80 V224.78 H849.17 V199.80 H824.20 Z M849.17,199.80 V224.78 H874.15 V199.80 H849.17 Z M899.12,199.80 V224.78 H924.10 V199.80 H899.12 Z M99.90,224.78 V249.76 H124.88 V224.78 H99.90 Z M249.76,224.78 V249.76 H274.73 V224.78 H249.76 Z M324.68,224.78 V249.76 H349.66 V224.78 H324.68 Z M374.63,224.78 V249.76 H399.61 V224.78 H374.63 Z M499.51,224.78 V249.76 H524.49 V224.78 H499.51 Z M524.49,224.78 V249.76 H549.46 V224.78 H524.49 Z M574.44,224.78 V249.76 H599.41 V224.78 H574.44 Z M599.41,224.78 V249.76 H624.39 V224.78 H599.41 Z M674.34,224.78 V249.76 H699.32 V224.78 H674.34 Z M749.27,224.78 V249.76 H774.24 V224.78 H749.27 Z M899.12,224.78 V249.76 H924.10 V224.78 H899.12 Z M99.90,249.76 V274.73 H124.88 V249.76 H99.90 Z M124.88,249.76 V274.73 H149.85 V249.76 H124.88 Z M149.85,249.76 V274.73 H174.83 V249.76 H149.85 Z M174.83,249.76 V274.73 H199.80 V249.76 H174.83 Z M199.80,249.76 V274.73 H224.78 V249.76 H199.80 Z M224.78,249.76 V274.73 H249.76 V249.76 H224.78 Z M249.76,249.76 V274.73 H274.73 V249.76 H249.76 Z M299.71,249.76 V274.73 H324.68 V249.76 H299.71 Z M349.66,249.76 V274.73 H374.63 V249.76 H349.66 Z M399.61,249.76 V274.73 H424.59 V249.76 H399.61 Z M449.56,249.76 V274.73 H474.54 V249.76 H449.56 Z M499.51,249.76 V274.73 H524.49 V249.76 H499.51 Z M549.46,249.76 V274.73 H574.44 V249.76 H549.46 Z M599.41,249.76 V274.73 H624.39 V249.76 H599.41 Z M649.37,249.76 V274.73 H674.34 V249.76 H649.37 Z M699.32,249.76 V274.73 H724.29 V249.76 H699.32 Z M749.27,249.76 V274.73 H774.24 V249.76 H749.27 Z M774.24,249.76 V274.73 H799.22 V249.76 H774.24 Z M799.22,249.76 V274.73 H824.20 V249.76 H799.22 Z M824.20,249.76 V274.73 H849.17 V249.76 H824.20 Z M849.17,249.76 V274.73 H874.15 V249.76 H849.17 Z M874.15,249.76 V274.73 H899.12 V249.76 H874.15 Z M899.12,249.76 V274.73 H924.10 V249.76 H899.12 Z M299.71,274.73 V299.71 H324.68 V274.73 H299.71 Z M349.66,274.73 V299.71 H374.63 V274.73 H349.66 Z M399.61,274.73 V299.71 H424.59 V274.73 H399.61 Z M449.56,274.73 V299.71 H474.54 V274.73 H449.56 Z M474.54,274.73 V299.71 H499.51 V274.73 H474.54 Z M549.46,274.73 V299.71 H574.44 V274.73 H549.46 Z M574.44,274.73 V299.71 H599.41 V274.73 H574.44 Z M599.41,274.73 V299.71 H624.39 V274.73 H599.41 Z M624.39,274.73 V299.71 H649.37 V274.73 H624.39 Z M149.85,299.71 V324.68 H174.83 V299.71 H149.85 Z M174.83,299.71 V324.68 H199.80 V299.71 H174.83 Z M249.76,299.71 V324.68 H274.73 V299.71 H249.76 Z M324.68,299.71 V324.68 H349.66 V299.71 H324.68 Z M374.63,299.71 V324.68 H399.61 V299.71 H374.63 Z M399.61,299.71 V324.68 H424.59 V299.71 H399.61 Z M499.51,299.71 V324.68 H524.49 V299.71 H499.51 Z M524.49,299.71 V324.68 H549.46 V299.71 H524.49 Z M549.46,299.71 V324.68 H574.44 V299.71 H549.46 Z M649.37,299.71 V324.68 H674.34 V299.71 H649.37 Z M724.29,299.71 V324.68 H749.27 V299.71 H724.29 Z M749.27,299.71 V324.68 H774.24 V299.71 H749.27 Z M799.22,299.71 V324.68 H824.20 V299.71 H799.22 Z M824.20,299.71 V324.68 H849.17 V299.71 H824.20 Z M124.88,324.68 V349.66 H149.85 V324.68 H124.88 Z M324.68,324.68 V349.66 H349.66 V324.68 H324.68 Z M374.63,324.68 V349.66 H399.61 V324.68 H374.63 Z M424.59,324.68 V349.66 H449.56 V324.68 H424.59 Z M449.56,324.68 V349.66 H474.54 V324.68 H449.56 Z M474.54,324.68 V349.66 H499.51 V324.68 H474.54 Z M549.46,324.68 V349.66 H574.44 V324.68 H549.46 Z M574.44,324.68 V349.66 H599.41 V324.68 H574.44 Z M599.41,324.68 V349.66 H624.39 V324.68 H599.41 Z M624.39,324.68 V349.66 H649.37 V324.68 H624.39 Z M649.37,324.68 V349.66 H674.34 V324.68 H649.37 Z M699.32,324.68 V349.66 H724.29 V324.68 H699.32 Z M749.27,324.68 V349.66 H774.24 V324.68 H749.27 Z M799.22,324.68 V349.66 H824.20 V324.68 H799.22 Z M874.15,324.68 V349.66 H899.12 V324.68 H874.15 Z M174.83,349.66 V374.63 H199.80 V349.66 H174.83 Z M199.80,349.66 V374.63 H224.78 V349.66 H199.80 Z M224.78,349.66 V374.63 H249.76 V349.66 H224.78 Z M249.76,349.66 V374.63 H274.73 V349.66 H249.76 Z M299.71,349.66 V374.63 H324.68 V349.66 H299.71 Z M324.68,349.66 V374.63 H349.66 V349.66 H324.68 Z M349.66,349.66 V374.63 H374.63 V349.66 H349.66 Z M449.56,349.66 V374.63 H474.54 V349.66 H449.56 Z M499.51,349.66 V374.63 H524.49 V349.66 H499.51 Z M574.44,349.66 V374.63 H599.41 V349.66 H574.44 Z M599.41,349.66 V374.63 H624.39 V349.66 H599.41 Z M624.39,349.66 V374.63 H649.37 V349.66 H624.39 Z M649.37,349.66 V374.63 H674.34 V349.66 H649.37 Z M674.34,349.66 V374.63 H699.32 V349.66 H674.34 Z M874.15,349.66 V374.63 H899.12 V349.66 H874.15 Z M899.12,349.66 V374.63 H924.10 V349.66 H899.12 Z M99.90,374.63 V399.61 H124.88 V374.63 H99.90 Z M299.71,374.63 V399.61 H324.68 V374.63 H299.71 Z M374.63,374.63 V399.61 H399.61 V374.63 H374.63 Z M399.61,374.63 V399.61 H424.59 V374.63 H399.61 Z M424.59,374.63 V399.61 H449.56 V374.63 H424.59 Z M449.56,374.63 V399.61 H474.54 V374.63 H449.56 Z M499.51,374.63 V399.61 H524.49 V374.63 H499.51 Z M574.44,374.63 V399.61 H599.41 V374.63 H574.44 Z M599.41,374.63 V399.61 H624.39 V374.63 H599.41 Z M649.37,374.63 V399.61 H674.34 V374.63 H649.37 Z M724.29,374.63 V399.61 H749.27 V374.63 H724.29 Z M774.24,374.63 V399.61 H799.22 V374.63 H774.24 Z M849.17,374.63 V399.61 H874.15 V374.63 H849.17 Z M99.90,399.61 V424.59 H124.88 V399.61 H99.90 Z M199.80,399.61 V424.59 H224.78 V399.61 H199.80 Z M224.78,399.61 V424.59 H249.76 V399.61 H224.78 Z M249.76,399.61 V424.59 H274.73 V399.61 H249.76 Z M274.73,399.61 V424.59 H299.71 V399.61 H274.73 Z M499.51,399.61 V424.59 H524.49 V399.61 H499.51 Z M524.49,399.61 V424.59 H549.46 V399.61 H524.49 Z M549.46,399.61 V424.59 H574.44 V399.61 H549.46 Z M574.44,399.61 V424.59 H599.41 V399.61 H574.44 Z M599.41,399.61 V424.59 H624.39 V399.61 H599.41 Z M649.37,399.61 V424.59 H674.34 V399.61 H649.37 Z M674.34,399.61 V424.59 H699.32 V399.61 H674.34 Z M699.32,399.61 V424.59 H724.29 V399.61 H699.32 Z M749.27,399.61 V424.59 H774.24 V399.61 H749.27 Z M774.24,399.61 V424.59 H799.22 V399.61 H774.24 Z M799.22,399.61 V424.59 H824.20 V399.61 H799.22 Z M849.17,399.61 V424.59 H874.15 V399.61 H849.17 Z M874.15,399.61 V424.59 H899.12 V399.61 H874.15 Z M899.12,399.61 V424.59 H924.10 V399.61 H899.12 Z M324.68,424.59 V449.56 H349.66 V424.59 H324.68 Z M399.61,424.59 V449.56 H424.59 V424.59 H399.61 Z M449.56,424.59 V449.56 H474.54 V424.59 H449.56 Z M499.51,424.59 V449.56 H524.49 V424.59 H499.51 Z M599.41,424.59 V449.56 H624.39 V424.59 H599.41 Z M674.34,424.59 V449.56 H699.32 V424.59 H674.34 Z M749.27,424.59 V449.56 H774.24 V424.59 H749.27 Z M799.22,424.59 V449.56 H824.20 V424.59 H799.22 Z M824.20,424.59 V449.56 H849.17 V424.59 H824.20 Z M874.15,424.59 V449.56 H899.12 V424.59 H874.15 Z M149.85,449.56 V474.54 H174.83 V449.56 H149.85 Z M174.83,449.56 V474.54 H199.80 V449.56 H174.83 Z M199.80,449.56 V474.54 H224.78 V449.56 H199.80 Z M224.78,449.56 V474.54 H249.76 V449.56 H224.78 Z M249.76,449.56 V474.54 H274.73 V449.56 H249.76 Z M299.71,449.56 V474.54 H324.68 V449.56 H299.71 Z M349.66,449.56 V474.54 H374.63 V449.56 H349.66 Z M374.63,449.56 V474.54 H399.61 V449.56 H374.63 Z M424.59,449.56 V474.54 H449.56 V449.56 H424.59 Z M449.56,449.56 V474.54 H474.54 V449.56 H449.56 Z M499.51,449.56 V474.54 H524.49 V449.56 H499.51 Z M549.46,449.56 V474.54 H574.44 V449.56 H549.46 Z M624.39,449.56 V474.54 H649.37 V449.56 H624.39 Z M674.34,449.56 V474.54 H699.32 V449.56 H674.34 Z M749.27,449.56 V474.54 H774.24 V449.56 H749.27 Z M774.24,449.56 V474.54 H799.22 V449.56 H774.24 Z M824.20,449.56 V474.54 H849.17 V449.56 H824.20 Z M874.15,449.56 V474.54 H899.12 V449.56 H874.15 Z M99.90,474.54 V499.51 H124.88 V474.54 H99.90 Z M149.85,474.54 V499.51 H174.83 V474.54 H149.85 Z M299.71,474.54 V499.51 H324.68 V474.54 H299.71 Z M324.68,474.54 V499.51 H349.66 V474.54 H324.68 Z M349.66,474.54 V499.51 H374.63 V474.54 H349.66 Z M374.63,474.54 V499.51 H399.61 V474.54 H374.63 Z M474.54,474.54 V499.51 H499.51 V474.54 H474.54 Z M499.51,474.54 V499.51 H524.49 V474.54 H499.51 Z M649.37,474.54 V499.51 H674.34 V474.54 H649.37 Z M674.34,474.54 V499.51 H699.32 V474.54 H674.34 Z M724.29,474.54 V499.51 H749.27 V474.54 H724.29 Z M774.24,474.54 V499.51 H799.22 V474.54 H774.24 Z M799.22,474.54 V499.51 H824.20 V474.54 H799.22 Z M824.20,474.54 V499.51 H849.17 V474.54 H824.20 Z M849.17,474.54 V499.51 H874.15 V474.54 H849.17 Z M899.12,474.54 V499.51 H924.10 V474.54 H899.12 Z M149.85,499.51 V524.49 H174.83 V499.51 H149.85 Z M174.83,499.51 V524.49 H199.80 V499.51 H174.83 Z M249.76,499.51 V524.49 H274.73 V499.51 H249.76 Z M299.71,499.51 V524.49 H324.68 V499.51 H299.71 Z M324.68,499.51 V524.49 H349.66 V499.51 H324.68 Z M349.66,499.51 V524.49 H374.63 V499.51 H349.66 Z M449.56,499.51 V524.49 H474.54 V499.51 H449.56 Z M474.54,499.51 V524.49 H499.51 V499.51 H474.54 Z M499.51,499.51 V524.49 H524.49 V499.51 H499.51 Z M524.49,499.51 V524.49 H549.46 V499.51 H524.49 Z M549.46,499.51 V524.49 H574.44 V499.51 H549.46 Z M599.41,499.51 V524.49 H624.39 V499.51 H599.41 Z M624.39,499.51 V524.49 H649.37 V499.51 H624.39 Z M649.37,499.51 V524.49 H674.34 V499.51 H649.37 Z M674.34,499.51 V524.49 H699.32 V499.51 H674.34 Z M699.32,499.51 V524.49 H724.29 V499.51 H699.32 Z M749.27,499.51 V524.49 H774.24 V499.51 H749.27 Z M799.22,499.51 V524.49 H824.20 V499.51 H799.22 Z M824.20,499.51 V524.49 H849.17 V499.51 H824.20 Z M849.17,499.51 V524.49 H874.15 V499.51 H849.17 Z M99.90,524.49 V549.46 H124.88 V524.49 H99.90 Z M199.80,524.49 V549.46 H224.78 V524.49 H199.80 Z M224.78,524.49 V549.46 H249.76 V524.49 H224.78 Z M349.66,524.49 V549.46 H374.63 V524.49 H349.66 Z M374.63,524.49 V549.46 H399.61 V524.49 H374.63 Z M399.61,524.49 V549.46 H424.59 V524.49 H399.61 Z M424.59,524.49 V549.46 H449.56 V524.49 H424.59 Z M499.51,524.49 V549.46 H524.49 V524.49 H499.51 Z M574.44,524.49 V549.46 H599.41 V524.49 H574.44 Z M599.41,524.49 V549.46 H624.39 V524.49 H599.41 Z M649.37,524.49 V549.46 H674.34 V524.49 H649.37 Z M749.27,524.49 V549.46 H774.24 V524.49 H749.27 Z M874.15,524.49 V549.46 H899.12 V524.49 H874.15 Z M899.12,524.49 V549.46 H924.10 V524.49 H899.12 Z M99.90,549.46 V574.44 H124.88 V549.46 H99.90 Z M199.80,549.46 V574.44 H224.78 V549.46 H199.80 Z M224.78,549.46 V574.44 H249.76 V549.46 H224.78 Z M249.76,549.46 V574.44 H274.73 V549.46 H249.76 Z M299.71,549.46 V574.44 H324.68 V549.46 H299.71 Z M324.68,549.46 V574.44 H349.66 V549.46 H324.68 Z M349.66,549.46 V574.44 H374.63 V549.46 H349.66 Z M374.63,549.46 V574.44 H399.61 V549.46 H374.63 Z M499.51,549.46 V574.44 H524.49 V549.46 H499.51 Z M524.49,549.46 V574.44 H549.46 V549.46 H524.49 Z M574.44,549.46 V574.44 H599.41 V549.46 H574.44 Z M599.41,549.46 V574.44 H624.39 V549.46 H599.41 Z M774.24,549.46 V574.44 H799.22 V549.46 H774.24 Z M799.22,549.46 V574.44 H824.20 V549.46 H799.22 Z M99.90,574.44 V599.41 H124.88 V574.44 H99.90 Z M124.88,574.44 V599.41 H149.85 V574.44 H124.88 Z M149.85,574.44 V599.41 H174.83 V574.44 H149.85 Z M199.80,574.44 V599.41 H224.78 V574.44 H199.80 Z M324.68,574.44 V599.41 H349.66 V574.44 H324.68 Z M349.66,574.44 V599.41 H374.63 V574.44 H349.66 Z M474.54,574.44 V599.41 H499.51 V574.44 H474.54 Z M499.51,574.44 V599.41 H524.49 V574.44 H499.51 Z M549.46,574.44 V599.41 H574.44 V574.44 H549.46 Z M599.41,574.44 V599.41 H624.39 V574.44 H599.41 Z M624.39,574.44 V599.41 H649.37 V574.44 H624.39 Z M724.29,574.44 V599.41 H749.27 V574.44 H724.29 Z M749.27,574.44 V599.41 H774.24 V574.44 H749.27 Z M774.24,574.44 V599.41 H799.22 V574.44 H774.24 Z M799.22,574.44 V599.41 H824.20 V574.44 H799.22 Z M824.20,574.44 V599.41 H849.17 V574.44 H824.20 Z M849.17,574.44 V599.41 H874.15 V574.44 H849.17 Z M899.12,574.44 V599.41 H924.10 V574.44 H899.12 Z M99.90,599.41 V624.39 H124.88 V599.41 H99.90 Z M124.88,599.41 V624.39 H149.85 V599.41 H124.88 Z M149.85,599.41 V624.39 H174.83 V599.41 H149.85 Z M174.83,599.41 V624.39 H199.80 V599.41 H174.83 Z M249.76,599.41 V624.39 H274.73 V599.41 H249.76 Z M274.73,599.41 V624.39 H299.71 V599.41 H274.73 Z M299.71,599.41 V624.39 H324.68 V599.41 H299.71 Z M324.68,599.41 V624.39 H349.66 V599.41 H324.68 Z M349.66,599.41 V624.39 H374.63 V599.41 H349.66 Z M424.59,599.41 V624.39 H449.56 V599.41 H424.59 Z M524.49,599.41 V624.39 H549.46 V599.41 H524.49 Z M549.46,599.41 V624.39 H574.44 V599.41 H549.46 Z M574.44,599.41 V624.39 H599.41 V599.41 H574.44 Z M599.41,599.41 V624.39 H624.39 V599.41 H599.41 Z M649.37,599.41 V624.39 H674.34 V599.41 H649.37 Z M699.32,599.41 V624.39 H724.29 V599.41 H699.32 Z M749.27,599.41 V624.39 H774.24 V599.41 H749.27 Z M774.24,599.41 V624.39 H799.22 V599.41 H774.24 Z M824.20,599.41 V624.39 H849.17 V599.41 H824.20 Z M849.17,599.41 V624.39 H874.15 V599.41 H849.17 Z M874.15,599.41 V624.39 H899.12 V599.41 H874.15 Z M99.90,624.39 V649.37 H124.88 V624.39 H99.90 Z M149.85,624.39 V649.37 H174.83 V624.39 H149.85 Z M174.83,624.39 V649.37 H199.80 V624.39 H174.83 Z M199.80,624.39 V649.37 H224.78 V624.39 H199.80 Z M324.68,624.39 V649.37 H349.66 V624.39 H324.68 Z M374.63,624.39 V649.37 H399.61 V624.39 H374.63 Z M399.61,624.39 V649.37 H424.59 V624.39 H399.61 Z M424.59,624.39 V649.37 H449.56 V624.39 H424.59 Z M549.46,624.39 V649.37 H574.44 V624.39 H549.46 Z M624.39,624.39 V649.37 H649.37 V624.39 H624.39 Z M649.37,624.39 V649.37 H674.34 V624.39 H649.37 Z M749.27,624.39 V649.37 H774.24 V624.39 H749.27 Z M799.22,624.39 V649.37 H824.20 V624.39 H799.22 Z M824.20,624.39 V649.37 H849.17 V624.39 H824.20 Z M849.17,624.39 V649.37 H874.15 V624.39 H849.17 Z M899.12,624.39 V649.37 H924.10 V624.39 H899.12 Z M99.90,649.37 V674.34 H124.88 V649.37 H99.90 Z M124.88,649.37 V674.34 H149.85 V649.37 H124.88 Z M199.80,649.37 V674.34 H224.78 V649.37 H199.80 Z M249.76,649.37 V674.34 H274.73 V649.37 H249.76 Z M324.68,649.37 V674.34 H349.66 V649.37 H324.68 Z M349.66,649.37 V674.34 H374.63 V649.37 H349.66 Z M374.63,649.37 V674.34 H399.61 V649.37 H374.63 Z M524.49,649.37 V674.34 H549.46 V649.37 H524.49 Z M549.46,649.37 V674.34 H574.44 V649.37 H549.46 Z M574.44,649.37 V674.34 H599.41 V649.37 H574.44 Z M674.34,649.37 V674.34 H699.32 V649.37 H674.34 Z M724.29,649.37 V674.34 H749.27 V649.37 H724.29 Z M749.27,649.37 V674.34 H774.24 V649.37 H749.27 Z M849.17,649.37 V674.34 H874.15 V649.37 H849.17 Z M899.12,649.37 V674.34 H924.10 V649.37 H899.12 Z M149.85,674.34 V699.32 H174.83 V674.34 H149.85 Z M174.83,674.34 V699.32 H199.80 V674.34 H174.83 Z M199.80,674.34 V699.32 H224.78 V674.34 H199.80 Z M224.78,674.34 V699.32 H249.76 V674.34 H224.78 Z M324.68,674.34 V699.32 H349.66 V674.34 H324.68 Z M349.66,674.34 V699.32 H374.63 V674.34 H349.66 Z M374.63,674.34 V699.32 H399.61 V674.34 H374.63 Z M424.59,674.34 V699.32 H449.56 V674.34 H424.59 Z M499.51,674.34 V699.32 H524.49 V674.34 H499.51 Z M549.46,674.34 V699.32 H574.44 V674.34 H549.46 Z M574.44,674.34 V699.32 H599.41 V674.34 H574.44 Z M749.27,674.34 V699.32 H774.24 V674.34 H749.27 Z M774.24,674.34 V699.32 H799.22 V674.34 H774.24 Z M799.22,674.34 V699.32 H824.20 V674.34 H799.22 Z M899.12,674.34 V699.32 H924.10 V674.34 H899.12 Z M99.90,699.32 V724.29 H124.88 V699.32 H99.90 Z M124.88,699.32 V724.29 H149.85 V699.32 H124.88 Z M149.85,699.32 V724.29 H174.83 V699.32 H149.85 Z M199.80,699.32 V724.29 H224.78 V699.32 H199.80 Z M249.76,699.32 V724.29 H274.73 V699.32 H249.76 Z M274.73,699.32 V724.29 H299.71 V699.32 H274.73 Z M374.63,699.32 V724.29 H399.61 V699.32 H374.63 Z M449.56,699.32 V724.29 H474.54 V699.32 H449.56 Z M524.49,699.32 V724.29 H549.46 V699.32 H524.49 Z M574.44,699.32 V724.29 H599.41 V699.32 H574.44 Z M599.41,699.32 V724.29 H624.39 V699.32 H599.41 Z M649.37,699.32 V724.29 H674.34 V699.32 H649.37 Z M699.32,699.32 V724.29 H724.29 V699.32 H699.32 Z M724.29,699.32 V724.29 H749.27 V699.32 H724.29 Z M749.27,699.32 V724.29 H774.24 V699.32 H749.27 Z M774.24,699.32 V724.29 H799.22 V699.32 H774.24 Z M799.22,699.32 V724.29 H824.20 V699.32 H799.22 Z M849.17,699.32 V724.29 H874.15 V699.32 H849.17 Z M899.12,699.32 V724.29 H924.10 V699.32 H899.12 Z M324.68,724.29 V749.27 H349.66 V724.29 H324.68 Z M374.63,724.29 V749.27 H399.61 V724.29 H374.63 Z M424.59,724.29 V749.27 H449.56 V724.29 H424.59 Z M499.51,724.29 V749.27 H524.49 V724.29 H499.51 Z M599.41,724.29 V749.27 H624.39 V724.29 H599.41 Z M699.32,724.29 V749.27 H724.29 V724.29 H699.32 Z M799.22,724.29 V749.27 H824.20 V724.29 H799.22 Z M824.20,724.29 V749.27 H849.17 V724.29 H824.20 Z M99.90,749.27 V774.24 H124.88 V749.27 H99.90 Z M124.88,749.27 V774.24 H149.85 V749.27 H124.88 Z M149.85,749.27 V774.24 H174.83 V749.27 H149.85 Z M174.83,749.27 V774.24 H199.80 V749.27 H174.83 Z M199.80,749.27 V774.24 H224.78 V749.27 H199.80 Z M224.78,749.27 V774.24 H249.76 V749.27 H224.78 Z M249.76,749.27 V774.24 H274.73 V749.27 H249.76 Z M349.66,749.27 V774.24 H374.63 V749.27 H349.66 Z M374.63,749.27 V774.24 H399.61 V749.27 H374.63 Z M399.61,749.27 V774.24 H424.59 V749.27 H399.61 Z M449.56,749.27 V774.24 H474.54 V749.27 H449.56 Z M499.51,749.27 V774.24 H524.49 V749.27 H499.51 Z M524.49,749.27 V774.24 H549.46 V749.27 H524.49 Z M624.39,749.27 V774.24 H649.37 V749.27 H624.39 Z M649.37,749.27 V774.24 H674.34 V749.27 H649.37 Z M699.32,749.27 V774.24 H724.29 V749.27 H699.32 Z M749.27,749.27 V774.24 H774.24 V749.27 H749.27 Z M799.22,749.27 V774.24 H824.20 V749.27 H799.22 Z M874.15,749.27 V774.24 H899.12 V749.27 H874.15 Z M99.90,774.24 V799.22 H124.88 V774.24 H99.90 Z M249.76,774.24 V799.22 H274.73 V774.24 H249.76 Z M324.68,774.24 V799.22 H349.66 V774.24 H324.68 Z M349.66,774.24 V799.22 H374.63 V774.24 H349.66 Z M374.63,774.24 V799.22 H399.61 V774.24 H374.63 Z M399.61,774.24 V799.22 H424.59 V774.24 H399.61 Z M424.59,774.24 V799.22 H449.56 V774.24 H424.59 Z M499.51,774.24 V799.22 H524.49 V774.24 H499.51 Z M599.41,774.24 V799.22 H624.39 V774.24 H599.41 Z M624.39,774.24 V799.22 H649.37 V774.24 H624.39 Z M699.32,774.24 V799.22 H724.29 V774.24 H699.32 Z M799.22,774.24 V799.22 H824.20 V774.24 H799.22 Z M824.20,774.24 V799.22 H849.17 V774.24 H824.20 Z M99.90,799.22 V824.20 H124.88 V799.22 H99.90 Z M149.85,799.22 V824.20 H174.83 V799.22 H149.85 Z M174.83,799.22 V824.20 H199.80 V799.22 H174.83 Z M199.80,799.22 V824.20 H224.78 V799.22 H199.80 Z M249.76,799.22 V824.20 H274.73 V799.22 H249.76 Z M324.68,799.22 V824.20 H349.66 V799.22 H324.68 Z M374.63,799.22 V824.20 H399.61 V799.22 H374.63 Z M449.56,799.22 V824.20 H474.54 V799.22 H449.56 Z M499.51,799.22 V824.20 H524.49 V799.22 H499.51 Z M524.49,799.22 V824.20 H549.46 V799.22 H524.49 Z M549.46,799.22 V824.20 H574.44 V799.22 H549.46 Z M624.39,799.22 V824.20 H649.37 V799.22 H624.39 Z M674.34,799.22 V824.20 H699.32 V799.22 H674.34 Z M699.32,799.22 V824.20 H724.29 V799.22 H699.32 Z M724.29,799.22 V824.20 H749.27 V799.22 H724.29 Z M749.27,799.22 V824.20 H774.24 V799.22 H749.27 Z M774.24,799.22 V824.20 H799.22 V799.22 H774.24 Z M799.22,799.22 V824.20 H824.20 V799.22 H799.22 Z M849.17,799.22 V824.20 H874.15 V799.22 H849.17 Z M899.12,799.22 V824.20 H924.10 V799.22 H899.12 Z M99.90,824.20 V849.17 H124.88 V824.20 H99.90 Z M149.85,824.20 V849.17 H174.83 V824.20 H149.85 Z M174.83,824.20 V849.17 H199.80 V824.20 H174.83 Z M199.80,824.20 V849.17 H224.78 V824.20 H199.80 Z M249.76,824.20 V849.17 H274.73 V824.20 H249.76 Z M299.71,824.20 V849.17 H324.68 V824.20 H299.71 Z M499.51,824.20 V849.17 H524.49 V824.20 H499.51 Z M524.49,824.20 V849.17 H549.46 V824.20 H524.49 Z M549.46,824.20 V849.17 H574.44 V824.20 H549.46 Z M574.44,824.20 V849.17 H599.41 V824.20 H574.44 Z M599.41,824.20 V849.17 H624.39 V824.20 H599.41 Z M649.37,824.20 V849.17 H674.34 V824.20 H649.37 Z M699.32,824.20 V849.17 H724.29 V824.20 H699.32 Z M774.24,824.20 V849.17 H799.22 V824.20 H774.24 Z M799.22,824.20 V849.17 H824.20 V824.20 H799.22 Z M849.17,824.20 V849.17 H874.15 V824.20 H849.17 Z M874.15,824.20 V849.17 H899.12 V824.20 H874.15 Z M99.90,849.17 V874.15 H124.88 V849.17 H99.90 Z M149.85,849.17 V874.15 H174.83 V849.17 H149.85 Z M174.83,849.17 V874.15 H199.80 V849.17 H174.83 Z M199.80,849.17 V874.15 H224.78 V849.17 H199.80 Z M249.76,849.17 V874.15 H274.73 V849.17 H249.76 Z M299.71,849.17 V874.15 H324.68 V849.17 H299.71 Z M349.66,849.17 V874.15 H374.63 V849.17 H349.66 Z M374.63,849.17 V874.15 H399.61 V849.17 H374.63 Z M424.59,849.17 V874.15 H449.56 V849.17 H424.59 Z M474.54,849.17 V874.15 H499.51 V849.17 H474.54 Z M549.46,849.17 V874.15 H574.44 V849.17 H549.46 Z M574.44,849.17 V874.15 H599.41 V849.17 H574.44 Z M624.39,849.17 V874.15 H649.37 V849.17 H624.39 Z M674.34,849.17 V874.15 H699.32 V849.17 H674.34 Z M774.24,849.17 V874.15 H799.22 V849.17 H774.24 Z M874.15,849.17 V874.15 H899.12 V849.17 H874.15 Z M99.90,874.15 V899.12 H124.88 V874.15 H99.90 Z M249.76,874.15 V899.12 H274.73 V874.15 H249.76 Z M324.68,874.15 V899.12 H349.66 V874.15 H324.68 Z M349.66,874.15 V899.12 H374.63 V874.15 H349.66 Z M374.63,874.15 V899.12 H399.61 V874.15 H374.63 Z M424.59,874.15 V899.12 H449.56 V874.15 H424.59 Z M499.51,874.15 V899.12 H524.49 V874.15 H499.51 Z M649.37,874.15 V899.12 H674.34 V874.15 H649.37 Z M674.34,874.15 V899.12 H699.32 V874.15 H674.34 Z M724.29,874.15 V899.12 H749.27 V874.15 H724.29 Z M774.24,874.15 V899.12 H799.22 V874.15 H774.24 Z M799.22,874.15 V899.12 H824.20 V874.15 H799.22 Z M824.20,874.15 V899.12 H849.17 V874.15 H824.20 Z M849.17,874.15 V899.12 H874.15 V874.15 H849.17 Z M874.15,874.15 V899.12 H899.12 V874.15 H874.15 Z M99.90,899.12 V924.10 H124.88 V899.12 H99.90 Z M124.88,899.12 V924.10 H149.85 V899.12 H124.88 Z M149.85,899.12 V924.10 H174.83 V899.12 H149.85 Z M174.83,899.12 V924.10 H199.80 V899.12 H174.83 Z M199.80,899.12 V924.10 H224.78 V899.12 H199.80 Z M224.78,899.12 V924.10 H249.76 V899.12 H224.78 Z M249.76,899.12 V924.10 H274.73 V899.12 H249.76 Z M349.66,899.12 V924.10 H374.63 V899.12 H349.66 Z M374.63,899.12 V924.10 H399.61 V899.12 H374.63 Z M399.61,899.12 V924.10 H424.59 V899.12 H399.61 Z M524.49,899.12 V924.10 H549.46 V899.12 H524.49 Z M549.46,899.12 V924.10 H574.44 V899.12 H549.46 Z M574.44,899.12 V924.10 H599.41 V899.12 H574.44 Z M649.37,899.12 V924.10 H674.34 V899.12 H649.37 Z M699.32,899.12 V924.10 H724.29 V899.12 H699.32 Z M849.17,899.12 V924.10 H874.15 V899.12 H849.17 Z M874.15,899.12 V924.10 H899.12 V899.12 H874.15 Z " />
<rect x="462" y="462" width="100" height="100" fill="#ffffff"/>
<polygon points="512,474 550,512 512,550 474,512" fill="#000000"/>
<text x="512" y="512" fill="#ffffff" font-family="Arial, Helvetica, sans-serif" font-size="16" font-weight="700" text-anchor="middle" dominant-baseline="middle">GDO</text>
</svg>